<svg xmlns="http://www.w3.org/2000/svg" fill="none" viewBox="0 0 131 40">
  <path fill="#26A162" d="M130.935 22c-.08.28-.2.56-.24.8533-.734 4.8667-3.013 8.8933-6.707 12.1067-2.586 2.2533-5.586 3.6933-8.96 4.3866-1.706.3467-3.426.4667-5.16.3734-2.653-.16-5.186-.8267-7.573-2.0134-.04-.0133-.053-.0666-.08-.0933.013-1.84.013-3.68.027-5.5067.146.0534.293.0934.44.1467.493.1867.973.4133 1.48.56 2.306.6533 4.653.8 7.04.56 1.173-.12 2.306-.3733 3.4-.8267 2.266-.96 3.84-2.56 4.626-4.92.56-1.68.667-3.3866.36-5.1066-.453-2.56-1.893-4.3867-4.266-5.4534-1.08-.4933-2.214-.7066-3.4-.8133-1.254-.1067-2.467 0-3.707.1467-.373.04-.76.28-1.2.0666.2-2.1733.4-4.3466.6-6.58663h10.227V6.02664c.013-1.57333.026-3.14667.026-4.72.174.05333.347.08.507.14667 2.307.86666 4.36 2.17333 6.147 3.84 3.373 3.16 5.453 7.01329 6.173 11.59999.053.32-.04.7067.226.9867.014 1.36.014 2.7466.014 4.12z"/>
  <path fill="#DB524A" d="M102.254 32.0933c-.014 1.84-.014 3.68-.027 5.5067-.787-.44-1.627-.8133-2.3601-1.32-2.7733-1.8933-4.96-4.3467-6.4933-7.3333-.9467-1.8534-1.5867-3.8134-1.92-5.88-.2533-1.5467-.32-3.0934-.2133-4.64.16-2.2534.6933-4.44 1.6133-6.52 1.1733-2.65337 2.84-4.9467 5-6.88003 2.3204-2.06667 4.9734-3.52 7.9734-4.320003.933-.253334 1.907-.373334 2.853-.573334C108.774.12 108.854.04 108.947 0h4c.04.04.08.106667.133.12.6.093333 1.214.16 1.814.28 1.013.226667 2.053.4 3 .89333-.014 1.57334-.027 3.14667-.027 4.72H103.8c-.026.42667-.026.8-.053 1.17334-.12 1.41333-.253 2.81333-.36 4.22663-.067.8134-.107 1.64-.16 2.4534-.04.64-.093 1.28-.147 1.92-.093 1.1466-.186 2.2933-.293 3.44.68.4133 1.32.8 1.88 1.1333.987-.1467 1.867-.32 2.773-.3867 1.08-.08 2.174-.1333 3.254-.0666.666.04 1.346.2666 1.973.5066 1.307.4934 2.173 1.4267 2.453 2.8267.12.64.147 1.32.147 1.9733-.027 2.1067-1.36 3.7334-3.347 4.2667-1.2.32-2.413.4267-3.666.2933-1.96-.1866-3.827-.64-5.587-1.5066-.12-.0667-.267-.08-.453-.1467v3.7333c-.054.08 0 .16.04.24z"/>
  <path fill="#777" d="M0 37.8667c.76.12 1.52.3067 2.28.3733 1.05333.0934 2.08-.08 3.01333-.5733.78667-.4133 1.28-1.1067 1.54667-1.92.18667-.56.28-1.16.34667-1.7467.05333-.48.02666-.9733.02666-1.4666V6.94668v-.8c.65334-.04 1.28-.04 1.96.01333v.68C9.17333 15.48 9.18667 24.12 9.16 32.76c0 1.1867-.08 2.3734-.46667 3.5334C8 38.3467 6.56 39.4667 4.48 39.8667c-.12.0267-.22667.0933-.33333.1333H.0133333C0 39.2934 0 38.5734 0 37.8667zM16.293 6.13281h1.96c0 .24.0133.46667.0133.70667V23.3061c0 1.1334.08 2.2534.4 3.3467.6533 2.1867 2 3.76 4.16 4.5733 1.6267.6134 3.2933.7334 5.0133.5467 1.3067-.1333 2.52-.4667 3.6134-1.1867 1.6133-1.0533 2.5733-2.5866 2.96-4.4666.2-.9734.2666-1.96.2666-2.96-.0133-5.4267 0-10.84 0-16.26669v-.74666h1.88v.54666c0 5.70669-.0133 11.41329 0 17.13329 0 1.4267-.2133 2.8267-.7466 4.1467-.9867 2.4667-2.8 4.0933-5.2934 4.96-.9866.3333-2.0133.4667-3.04.5733-1.7333.1867-3.4 0-5.0266-.52-3.0934-1-4.9867-3.1466-5.7467-6.2933-.2667-1.08-.3733-2.1733-.3733-3.28V6.81281c-.04-.21333-.04-.41333-.04-.68z"/>
  <path fill="#787878" d="M59.3166 33.1735h-1.84c0-.24-.0133-.48-.0133-.72v-12c0-.8934-.0667-1.76-.2534-2.64-.3466-1.6-1.2133-2.7734-2.84-3.1734-2.1867-.5466-4.3333-.4533-6.36.6667-1.1067.6133-1.7467 1.5867-2.1467 2.76-.36 1.0533-.5333 2.1333-.5466 3.2533 0 3.6934 0 7.3734-.0134 11.0667v.76h-1.8266v-20.08c.2533 0 .5066-.0133.76-.0133h.7466c.12.92.24 1.7866.36 2.7333.1734-.2.32-.32.44-.48.9734-1.32 2.3334-1.9867 3.8667-2.3733 1.2133-.3067 2.4533-.3334 3.6933-.2534 1.3334.0934 2.6001.4534 3.6801 1.32.6533.52 1.1333 1.1867 1.48 1.9334.3733.8266.6266 1.6933.6666 2.6133.04 1.1333.1067 2.2533.1067 3.3867.0133 3.5066 0 7.0266 0 10.5333.04.2133.04.4267.04.7067z"/>
  <path fill="#7A7A7A" d="M82.75 31.6135v1.5067c-.4133.1067-.8133.2267-1.2133.2933-1.32.2134-2.6266.2534-3.9333-.1333-1.64-.4933-2.5333-1.64-2.8933-3.2267-.1867-.8533-.2667-1.7466-.2667-2.6266-.0267-3.9734-.0133-7.96-.0133-11.9334v-.7866h-2.9067v-1.1467c.92-.2533 1.8667-.52 2.88-.8133.4133-1.4534.6133-3.00004.9867-4.5467h.96v4.8667h5.8666v1.5866h-5.8c-.0133.2-.04.3467-.04.4934v12.5333c0 .8.12 1.5733.3867 2.3467.4 1.1466 1.3333 1.8 2.56 1.8666.5733.0267 1.16.0267 1.7333-.0133.5467-.0667 1.08-.1867 1.6933-.2667z"/>
  <path fill="#757575" d="M65.8672 13.0938h1.72v20.0533h-1.72V13.0938z"/>
  <path fill="#777" d="M66.7166 5.72014c.4534-.02666.8001.17334.9867.61334.3334.84.3734 1.66667-.1333 2.46667-.2667.42667-.6667.46666-1.1067.41333-.4-.04-.6134-.30667-.7467-.66667-.24-.69333-.24-1.4-.04-2.08.1467-.56.4933-.8 1.04-.74667z"/>
  <path fill="#FDFDFC" d="M102.253 32.0927c-.04-.08-.093-.16-.093-.24v-3.7333c.2.0533.333.08.453.1466 1.76.8667 3.627 1.32 5.587 1.5067 1.254.12 2.467.0267 3.667-.2933 1.987-.5334 3.307-2.1467 3.347-4.2667.013-.6533-.014-1.3333-.147-1.9733-.267-1.3867-1.133-2.3334-2.453-2.8267-.64-.24-1.307-.4667-1.974-.5067-1.08-.0666-2.173-.0133-3.253.0667-.893.0667-1.787.24-2.774.3867-.56-.3334-1.2-.72-1.88-1.1334.094-1.16.2-2.3066.294-3.44.053-.64.106-1.28.146-1.92.054-.8133.094-1.64.16-2.4533.12-1.41334.24-2.81334.36-4.22667.027-.37333.04-.74667.054-1.17333h14.067v3.85333h-10.227c-.2 2.23997-.4 4.41337-.6 6.58667.44.2133.827-.0267 1.2-.0667 1.227-.1466 2.453-.2666 3.707-.1466 1.173.1066 2.32.32 3.4.8133 2.373 1.08 3.826 2.8933 4.266 5.4533.307 1.72.2 3.44-.36 5.1067-.786 2.36-2.36 3.96-4.626 4.92-1.08.4533-2.227.7067-3.4.8267-2.387.24-4.734.0933-7.041-.56-.506-.1467-.986-.3734-1.48-.56-.106-.0534-.253-.0934-.4-.1467z"/>
</svg>